<?xml version="1.0" standalone="no"?>
 <!DOCTYPE svg PUBLIC "-//W3C//DTD SVG 1.1//EN" 
 "http://www.w3.org/Graphics/SVG/1.1/DTD/svg11.dtd"> 
<svg
  xmlns:svg="http://www.w3.org/2000/svg"
  xmlns="http://www.w3.org/2000/svg"
  xmlns:xlink="http://www.w3.org/1999/xlink"
  version="1.1"
  width="124.5870mm" height="109.5756mm" viewBox="0.0000 0.0000 124.5870 109.5756">
<title>SVG Image created as Gate Controller-Edge_Cuts.svg date 2024/12/17 20:11:46 </title>
  <desc>Image generated by PCBNEW </desc>
<g style="fill:#000000; fill-opacity:1.0000;stroke:#000000; stroke-opacity:1.0000;
stroke-linecap:round; stroke-linejoin:round;"
 transform="translate(0 0) scale(1 1)">
</g>
<g style="fill:none; 
stroke:#000000; stroke-width:0.1000; stroke-opacity:1; 
stroke-linecap:round; stroke-linejoin:round;">
<path d="M70.0500 72.6880 A2.0094 2.0094 0.0 0 0 68.0500 70.4846" />
<path d="M12.0300 34.4939 A0.4999 0.4999 0.0 0 0 11.5301 33.9940" />
<path d="M120.4926 6.0220
L100.8075 6.0220
" />
<path d="M0.0500 106.5500 A3.0000 3.0000 0.0 0 0 3.0500 109.5500" />
<path d="M70.0500 3.0500
L70.0500 12.3000
" />
<path d="M67.8000 78.0500 A3.0000 3.0000 0.0 0 0 64.8000 75.0500" />
<path d="M124.5565 10.0859 A4.0639 4.0639 0.0 0 0 120.4926 6.0220" />
<path d="M64.8000 109.5500
L3.0500 109.5500
" />
<path d="M7.0300 51.4940
L7.0300 67.4939
" />
<path d="M92.0500 82.0500
L73.0500 82.0500
" />
<path d="M11.5300 50.9940 A0.5000 0.5000 0.0 0 0 12.0300 50.4940" />
<path d="M10.0300 14.4940 A3.0000 3.0000 0.0 0 0 7.0300 17.4940" />
<path d="M97.0500 89.8000
L97.0500 56.3000
" />
<path d="M67.8560 14.4940 A2.1940 2.1940 0.0 0 0 70.0500 12.3000" />
<path d="M67.8000 78.0500
L67.8000 106.5500
" />
<path d="M124.0500 56.3000 A3.0000 3.0000 0.0 0 0 121.0500 53.3000" />
<path d="M3.0500 75.0500
L64.8000 75.0500
" />
<path d="M11.5300 50.9940
L7.5300 50.9940
" />
<path d="M124.5565 48.1860
L124.5565 10.0859
" />
<path d="M95.0500 79.0500
L95.0500 3.0500
" />
<path d="M96.7435 48.1859 A4.0641 4.0641 0.0 0 0 100.8076 52.2500" />
<path d="M70.0500 79.0500 A3.0000 3.0000 0.0 0 0 73.0500 82.0500" />
<path d="M7.0300 17.4940
L7.0300 33.4939
" />
<path d="M97.0500 89.8000 A3.0000 3.0000 0.0 0 0 100.0500 92.8000" />
<path d="M100.0500 53.3000
L121.0500 53.3000
" />
<path d="M96.7435 10.0860
L96.7435 48.1859
" />
<path d="M100.8075 6.0220 A4.0640 4.0640 0.0 0 0 96.7435 10.0860" />
<path d="M12.0300 34.4939
L12.0300 50.4940
" />
<path d="M3.0500 75.0500 A3.0000 3.0000 0.0 0 0 0.0500 78.0500" />
<path d="M7.0300 67.4939 A3.0001 3.0001 0.0 0 0 9.7930 70.4846" />
<path d="M100.0500 53.3000 A3.0000 3.0000 0.0 0 0 97.0500 56.3000" />
<path d="M95.0500 3.0500 A3.0000 3.0000 0.0 0 0 92.0500 0.0500" />
<path d="M64.8000 109.5500 A3.0000 3.0000 0.0 0 0 67.8000 106.5500" />
<path d="M7.5300 50.9940 A0.5000 0.5000 0.0 0 0 7.0300 51.4940" />
<path d="M124.0500 56.3000
L124.0500 89.8000
" />
<path d="M121.0500 92.8000
L100.0500 92.8000
" />
<path d="M68.0500 70.4846
L9.7930 70.4846
" />
<path d="M70.0500 79.0500
L70.0500 72.6880
" />
<path d="M100.8076 52.2500
L120.4925 52.2500
" />
<path d="M92.0500 82.0500 A3.0000 3.0000 0.0 0 0 95.0500 79.0500" />
<path d="M7.5301 33.9940
L11.5301 33.9940
" />
<path d="M10.0300 14.4940
L67.8560 14.4940
" />
<path d="M0.0500 106.5500
L0.0500 78.0500
" />
<path d="M73.0500 0.0500 A3.0000 3.0000 0.0 0 0 70.0500 3.0500" />
<path d="M7.0300 33.4939 A0.5001 0.5001 0.0 0 0 7.5301 33.9940" />
<path d="M73.0500 0.0500
L92.0500 0.0500
" />
<path d="M121.0500 92.8000 A3.0000 3.0000 0.0 0 0 124.0500 89.8000" />
<path d="M120.4925 52.2500 A4.0640 4.0640 0.0 0 0 124.5565 48.1860" />
<circle cx="100.8075" cy="57.4570" r="1.6667" /> 
<path d="M98.3075 57.4570
L103.3075 57.4570
" />
<path d="M100.8075 54.9570
L100.8075 59.9570
" />
<circle cx="3.5943" cy="17.0294" r="1.6667" /> 
<path d="M1.0943 17.0294
L6.0943 17.0294
" />
<path d="M3.5943 14.5294
L3.5943 19.5294
" />
<path d="M70.0500 72.6880 A2.0094 2.0094 0.0 0 0 68.0500 70.4846" />
<path d="M12.0300 34.4939 A0.4999 0.4999 0.0 0 0 11.5301 33.9940" />
<path d="M120.4926 6.0220
L100.8075 6.0220
" />
<path d="M0.0500 106.5500 A3.0000 3.0000 0.0 0 0 3.0500 109.5500" />
<path d="M70.0500 3.0500
L70.0500 12.3000
" />
<path d="M67.8000 78.0500 A3.0000 3.0000 0.0 0 0 64.8000 75.0500" />
<path d="M124.5565 10.0859 A4.0639 4.0639 0.0 0 0 120.4926 6.0220" />
<path d="M64.8000 109.5500
L3.0500 109.5500
" />
<path d="M7.0300 51.4940
L7.0300 67.4939
" />
<path d="M92.0500 82.0500
L73.0500 82.0500
" />
<path d="M11.5300 50.9940 A0.5000 0.5000 0.0 0 0 12.0300 50.4940" />
<path d="M10.0300 14.4940 A3.0000 3.0000 0.0 0 0 7.0300 17.4940" />
<path d="M97.0500 89.8000
L97.0500 56.3000
" />
<path d="M67.8560 14.4940 A2.1940 2.1940 0.0 0 0 70.0500 12.3000" />
<path d="M67.8000 78.0500
L67.8000 106.5500
" />
<path d="M124.0500 56.3000 A3.0000 3.0000 0.0 0 0 121.0500 53.3000" />
<path d="M3.0500 75.0500
L64.8000 75.0500
" />
<path d="M11.5300 50.9940
L7.5300 50.9940
" />
<path d="M124.5565 48.1860
L124.5565 10.0859
" />
<path d="M95.0500 79.0500
L95.0500 3.0500
" />
<path d="M96.7435 48.1859 A4.0641 4.0641 0.0 0 0 100.8076 52.2500" />
<path d="M70.0500 79.0500 A3.0000 3.0000 0.0 0 0 73.0500 82.0500" />
<path d="M7.0300 17.4940
L7.0300 33.4939
" />
<path d="M97.0500 89.8000 A3.0000 3.0000 0.0 0 0 100.0500 92.8000" />
<path d="M100.0500 53.3000
L121.0500 53.3000
" />
<path d="M96.7435 10.0860
L96.7435 48.1859
" />
<path d="M100.8075 6.0220 A4.0640 4.0640 0.0 0 0 96.7435 10.0860" />
<path d="M12.0300 34.4939
L12.0300 50.4940
" />
<path d="M3.0500 75.0500 A3.0000 3.0000 0.0 0 0 0.0500 78.0500" />
<path d="M7.0300 67.4939 A3.0001 3.0001 0.0 0 0 9.7930 70.4846" />
<path d="M100.0500 53.3000 A3.0000 3.0000 0.0 0 0 97.0500 56.3000" />
<path d="M95.0500 3.0500 A3.0000 3.0000 0.0 0 0 92.0500 0.0500" />
<path d="M64.8000 109.5500 A3.0000 3.0000 0.0 0 0 67.8000 106.5500" />
<path d="M7.5300 50.9940 A0.5000 0.5000 0.0 0 0 7.0300 51.4940" />
<path d="M124.0500 56.3000
L124.0500 89.8000
" />
<path d="M121.0500 92.8000
L100.0500 92.8000
" />
<path d="M68.0500 70.4846
L9.7930 70.4846
" />
<path d="M70.0500 79.0500
L70.0500 72.6880
" />
<path d="M100.8076 52.2500
L120.4925 52.2500
" />
<path d="M92.0500 82.0500 A3.0000 3.0000 0.0 0 0 95.0500 79.0500" />
<path d="M7.5301 33.9940
L11.5301 33.9940
" />
<path d="M10.0300 14.4940
L67.8560 14.4940
" />
<path d="M0.0500 106.5500
L0.0500 78.0500
" />
<path d="M73.0500 0.0500 A3.0000 3.0000 0.0 0 0 70.0500 3.0500" />
<path d="M7.0300 33.4939 A0.5001 0.5001 0.0 0 0 7.5301 33.9940" />
<path d="M73.0500 0.0500
L92.0500 0.0500
" />
<path d="M121.0500 92.8000 A3.0000 3.0000 0.0 0 0 124.0500 89.8000" />
<path d="M120.4925 52.2500 A4.0640 4.0640 0.0 0 0 124.5565 48.1860" />
<circle cx="100.8075" cy="57.4570" r="1.6667" /> 
<path d="M98.3075 57.4570
L103.3075 57.4570
" />
<path d="M100.8075 54.9570
L100.8075 59.9570
" />
<circle cx="3.5943" cy="17.0294" r="1.6667" /> 
<path d="M1.0943 17.0294
L6.0943 17.0294
" />
<path d="M3.5943 14.5294
L3.5943 19.5294
" />
</g> 
</svg>
